<?xml version="1.0" standalone="no"?>
<!DOCTYPE svg PUBLIC "-//W3C//DTD SVG 20010904//EN"
 "http://www.w3.org/TR/2001/REC-SVG-20010904/DTD/svg10.dtd">
<svg version="1.0" xmlns="http://www.w3.org/2000/svg"
 width="1280.000000pt" height="873.000000pt" viewBox="0 0 1280.000000 873.000000"
 preserveAspectRatio="xMidYMid meet">

<g transform="translate(0.000000,873.000000) scale(0.100000,-0.100000)"
fill="#ff4454" stroke="none">
<path d="M9323 8612 c-24 -15 -2723 -3398 -2723 -3413 0 -9 6 -22 14 -28 10
-8 278 -11 1024 -9 1001 3 1011 3 1039 23 15 12 175 204 355 428 291 363 328
413 337 458 14 66 15 2492 1 2518 -11 22 -33 32 -47 23z"/>
<path d="M3027 8603 c-12 -11 -8 -2526 3 -2559 6 -16 475 -610 1043 -1319 897
-1121 1038 -1293 1077 -1313 l44 -22 996 0 c1032 0 1020 0 1020 40 0 8 -930
1177 -2066 2598 -2085 2605 -2086 2607 -2117 2575z"/>
<path d="M4811 1975 c-194 -44 -326 -115 -464 -252 -395 -391 -345 -1047 106
-1380 206 -151 473 -208 732 -154 351 72 628 354 700 710 24 115 16 324 -15
431 -50 174 -167 350 -306 460 -85 68 -246 150 -344 175 -90 24 -324 29 -409
10z m339 -311 c100 -30 172 -73 253 -154 120 -121 177 -258 177 -430 0 -102
-14 -167 -56 -259 -92 -199 -279 -331 -494 -347 -282 -21 -555 188 -615 472
-45 211 14 414 165 565 85 85 180 139 290 164 77 18 201 13 280 -11z"/>
<path d="M13 1943 c-10 -4 -13 -187 -13 -869 l0 -864 155 0 156 0 38 38 c63
60 1352 1683 1346 1693 -4 5 -88 9 -189 9 -168 0 -185 -2 -209 -20 -13 -11
-238 -286 -498 -612 l-474 -592 -3 604 c-2 468 -5 606 -15 612 -13 8 -274 10
-294 1z"/>
<path d="M2265 1936 c-16 -8 -44 -29 -61 -47 -25 -27 -829 -1032 -1256 -1570
-42 -54 -74 -100 -71 -103 8 -8 367 -8 388 0 9 4 125 141 257 306 l239 299
230 -288 c126 -158 239 -296 251 -305 17 -15 42 -18 167 -18 101 0 151 4 159
12 17 17 17 1699 0 1716 -17 17 -263 16 -303 -2z m-5 -856 c0 -209 -4 -380 -8
-380 -5 0 -77 85 -161 189 l-152 190 152 190 c84 105 156 191 161 191 4 0 8
-171 8 -380z"/>
<path d="M2985 1938 c-3 -7 -4 -398 -3 -868 l3 -855 409 -3 c358 -2 412 0 433
13 26 17 223 261 223 276 0 5 -166 10 -372 11 l-373 3 -3 704 c-1 500 -5 708
-13 718 -16 18 -297 19 -304 1z"/>
<path d="M6213 1936 c-4 -8 -6 -399 -3 -868 l5 -853 144 -3 c97 -2 148 1 157
9 12 10 14 128 14 718 l0 706 353 -3 c193 -1 362 -4 374 -5 19 -2 -16 -50
-232 -322 -140 -176 -255 -325 -255 -331 0 -13 570 -730 602 -756 18 -16 44
-18 210 -18 181 0 190 1 185 19 -2 10 -136 184 -297 386 -266 333 -292 369
-281 387 7 11 95 122 196 247 100 125 192 243 204 261 19 32 21 50 21 218 0
107 -4 191 -10 203 -10 18 -29 19 -695 19 -582 0 -685 -2 -692 -14z"/>
<path d="M8062 1938 c-17 -17 -17 -1699 0 -1716 8 -8 58 -12 159 -12 125 0
150 3 167 17 12 10 125 148 251 306 l230 288 240 -300 c153 -191 249 -303 264
-306 39 -10 370 -1 374 10 4 14 -1341 1697 -1369 1712 -31 17 -299 18 -316 1z
m476 -668 l152 -190 -152 -190 c-83 -104 -155 -190 -160 -190 -4 0 -8 171 -8
380 0 209 4 380 8 380 5 0 77 -85 160 -190z"/>
<path d="M9517 1943 c-4 -3 -7 -200 -7 -437 l0 -431 146 -183 c81 -101 152
-181 158 -179 8 3 12 109 16 361 l5 358 482 -605 c266 -333 490 -608 499 -611
31 -12 299 -7 312 6 19 19 17 1701 -2 1717 -9 8 -60 11 -157 9 l-144 -3 -3
-607 c-1 -335 -5 -608 -10 -607 -4 0 -221 268 -482 596 -261 327 -484 601
-495 609 -14 10 -56 14 -166 14 -80 0 -149 -3 -152 -7z"/>
<path d="M11383 1943 c-10 -3 -13 -42 -13 -143 0 -127 2 -140 19 -150 12 -6
109 -10 245 -10 l226 0 0 -703 c0 -533 3 -706 12 -715 15 -15 294 -17 303 -3
3 6 5 327 5 715 l0 706 287 0 c159 0 294 4 302 9 11 7 12 13 4 23 -94 123
-215 267 -228 272 -19 7 -1144 7 -1162 -1z"/>
</g>
</svg>
